<svg width="150" height="24" viewBox="0 0 150 24" fill="none" xmlns="http://www.w3.org/2000/svg">
<g id="Logo">
<g id="YourMeal">
<path d="M9.93151 23.897C9.07646 23.897 8.42393 23.666 7.9739 23.2039C7.52387 22.7419 7.29886 22.0819 7.29886 21.2239V11.6535L8.37892 14.5906L0.413461 3.53518C0.0984432 3.07317 -0.0365646 2.57815 0.00843799 2.05013C0.0534406 1.50011 0.278454 1.02709 0.683477 0.631072C1.0885 0.235056 1.66228 0.0370483 2.40483 0.0370483C2.94486 0.0370483 3.42864 0.169054 3.85616 0.433064C4.30619 0.697074 4.73371 1.11509 5.13874 1.68711L10.539 9.31041H9.45899L14.8593 1.68711C15.2868 1.09309 15.7031 0.675073 16.1081 0.433064C16.5356 0.169054 17.0307 0.0370483 17.5932 0.0370483C18.3132 0.0370483 18.8758 0.224056 19.2808 0.598071C19.6858 0.950084 19.8996 1.4011 19.9221 1.95112C19.9446 2.47914 19.7533 3.02916 19.3483 3.60119L11.4841 14.5906L12.5304 11.6535V21.2239C12.5304 23.0059 11.6641 23.897 9.93151 23.897Z" fill="#FF7020"/>
<path d="M27.6141 23.963C25.8365 23.963 24.2839 23.622 22.9563 22.9399C21.6513 22.2579 20.6387 21.2789 19.9187 20.0028C19.1986 18.7268 18.8386 17.2197 18.8386 15.4816C18.8386 14.1836 19.0411 13.0176 19.4461 11.9835C19.8512 10.9495 20.4362 10.0694 21.2012 9.34341C21.9888 8.59538 22.9226 8.03436 24.0027 7.66034C25.0827 7.26433 26.2865 7.06632 27.6141 7.06632C29.3917 7.06632 30.9331 7.40733 32.2381 8.08936C33.5657 8.77139 34.5895 9.73942 35.3096 10.9935C36.0521 12.2475 36.4234 13.7436 36.4234 15.4816C36.4234 16.8017 36.2096 17.9787 35.7821 19.0128C35.3771 20.0468 34.792 20.9379 34.027 21.6859C33.2619 22.4339 32.3281 23.0059 31.2256 23.402C30.1455 23.776 28.9417 23.963 27.6141 23.963ZM27.6141 20.2338C28.3567 20.2338 28.9979 20.0578 29.538 19.7058C30.078 19.3538 30.5055 18.8368 30.8205 18.1547C31.1356 17.4507 31.2931 16.5597 31.2931 15.4816C31.2931 13.8756 30.9556 12.6985 30.2805 11.9505C29.6055 11.1805 28.7167 10.7955 27.6141 10.7955C26.8941 10.7955 26.2528 10.9605 25.6902 11.2905C25.1502 11.6205 24.7227 12.1375 24.4077 12.8415C24.1152 13.5236 23.9689 14.4036 23.9689 15.4816C23.9689 17.0877 24.3064 18.2868 24.9815 19.0788C25.6565 19.8488 26.534 20.2338 27.6141 20.2338Z" fill="#FF7020"/>
<path d="M45.6332 23.963C44.2381 23.963 43.0793 23.71 42.1567 23.2039C41.2342 22.6979 40.5479 21.9389 40.0978 20.9269C39.6703 19.8928 39.4566 18.6168 39.4566 17.0987V9.64042C39.4566 8.80439 39.6703 8.17736 40.0978 7.75935C40.5479 7.34133 41.1779 7.13232 41.988 7.13232C42.798 7.13232 43.428 7.34133 43.8781 7.75935C44.3281 8.17736 44.5531 8.80439 44.5531 9.64042V17.2307C44.5531 18.1988 44.7556 18.9248 45.1606 19.4088C45.5657 19.8708 46.207 20.1018 47.0845 20.1018C48.0521 20.1018 48.8396 19.7718 49.4471 19.1118C50.0772 18.4298 50.3922 17.5387 50.3922 16.4387V9.64042C50.3922 8.80439 50.606 8.17736 51.0335 7.75935C51.4835 7.34133 52.1135 7.13232 52.9236 7.13232C53.7561 7.13232 54.3862 7.34133 54.8137 7.75935C55.2637 8.17736 55.4887 8.80439 55.4887 9.64042V21.3559C55.4887 23.0499 54.6674 23.897 53.0248 23.897C52.2148 23.897 51.596 23.677 51.1685 23.2369C50.741 22.7969 50.5272 22.1699 50.5272 21.3559V19.1448L51.0335 20.4318C50.5385 21.5539 49.8297 22.4229 48.9071 23.0389C47.9846 23.655 46.8932 23.963 45.6332 23.963Z" fill="#FF7020"/>
<path d="M62.0651 23.897C61.21 23.897 60.5575 23.677 60.1075 23.2369C59.6575 22.7969 59.4324 22.1699 59.4324 21.3559V9.64042C59.4324 8.82639 59.6462 8.21037 60.0737 7.79235C60.5238 7.35233 61.1425 7.13232 61.9301 7.13232C62.7401 7.13232 63.3589 7.35233 63.7864 7.79235C64.214 8.21037 64.4277 8.82639 64.4277 9.64042V11.3565H64.0902C64.3602 10.0364 64.9565 9.0134 65.8791 8.28737C66.8016 7.56134 67.9942 7.15432 69.4568 7.06632C70.0193 7.02232 70.4468 7.16532 70.7393 7.49534C71.0544 7.80335 71.2231 8.32037 71.2456 9.0464C71.2906 9.72842 71.1444 10.2674 70.8069 10.6635C70.4918 11.0595 69.9518 11.3015 69.1868 11.3895L68.4105 11.4555C67.1279 11.5655 66.1716 11.9285 65.5415 12.5445C64.934 13.1606 64.6302 14.0516 64.6302 15.2176V21.3559C64.6302 22.1699 64.4052 22.7969 63.9552 23.2369C63.5277 23.677 62.8976 23.897 62.0651 23.897Z" fill="#FF7020"/>
<path d="M76.2109 23.897C75.4458 23.897 74.8608 23.688 74.4558 23.2699C74.0507 22.8519 73.8482 22.2689 73.8482 21.5209V2.41314C73.8482 1.66511 74.062 1.08209 74.4895 0.664072C74.9395 0.246056 75.5471 0.0370483 76.3121 0.0370483C76.9872 0.0370483 77.5159 0.169054 77.8985 0.433064C78.3035 0.675073 78.6748 1.10409 79.0123 1.72011L86.809 15.6467H85.6614L93.4581 1.72011C93.7956 1.10409 94.1556 0.675073 94.5382 0.433064C94.9432 0.169054 95.472 0.0370483 96.1245 0.0370483C96.8896 0.0370483 97.4746 0.246056 97.8796 0.664072C98.3071 1.08209 98.5209 1.66511 98.5209 2.41314V21.5209C98.5209 22.2689 98.3184 22.8519 97.9134 23.2699C97.5083 23.688 96.9233 23.897 96.1583 23.897C95.3932 23.897 94.7969 23.688 94.3694 23.2699C93.9644 22.8519 93.7619 22.2689 93.7619 21.5209V8.15536H94.5044L88.2266 19.1448C87.9565 19.5628 87.664 19.8818 87.349 20.1018C87.0565 20.2998 86.6627 20.3988 86.1677 20.3988C85.6727 20.3988 85.2676 20.2888 84.9526 20.0688C84.6376 19.8488 84.3563 19.5408 84.1088 19.1448L77.7635 8.12236H78.5735V21.5209C78.5735 22.2689 78.371 22.8519 77.966 23.2699C77.5834 23.688 76.9984 23.897 76.2109 23.897Z" fill="#FF7020"/>
<path d="M111.515 23.963C109.557 23.963 107.869 23.622 106.452 22.9399C105.057 22.2359 103.977 21.2569 103.212 20.0028C102.469 18.7268 102.098 17.2307 102.098 15.5146C102.098 13.8426 102.458 12.3795 103.178 11.1255C103.898 9.84943 104.899 8.85939 106.182 8.15536C107.487 7.42933 108.961 7.06632 110.603 7.06632C111.796 7.06632 112.876 7.26433 113.843 7.66034C114.811 8.03436 115.644 8.58438 116.341 9.31041C117.039 10.0144 117.567 10.8835 117.927 11.9175C118.287 12.9295 118.468 14.0626 118.468 15.3166C118.468 15.7347 118.332 16.0537 118.062 16.2737C117.792 16.4717 117.399 16.5707 116.881 16.5707H106.283V13.9966H114.789L114.249 14.4586C114.249 13.5566 114.114 12.8085 113.843 12.2145C113.573 11.5985 113.18 11.1365 112.662 10.8285C112.167 10.5205 111.548 10.3664 110.806 10.3664C109.973 10.3664 109.264 10.5535 108.679 10.9275C108.094 11.3015 107.644 11.8405 107.329 12.5445C107.014 13.2486 106.857 14.0956 106.857 15.0856V15.3496C106.857 17.0217 107.251 18.2538 108.038 19.0458C108.848 19.8378 110.041 20.2338 111.616 20.2338C112.156 20.2338 112.775 20.1678 113.472 20.0358C114.17 19.9038 114.822 19.6948 115.43 19.4088C115.947 19.1668 116.409 19.0898 116.814 19.1778C117.219 19.2438 117.534 19.4198 117.759 19.7058C117.984 19.9918 118.107 20.3218 118.13 20.6959C118.175 21.0699 118.096 21.4439 117.894 21.8179C117.691 22.1699 117.354 22.4669 116.881 22.7089C116.116 23.1269 115.25 23.435 114.282 23.633C113.337 23.853 112.415 23.963 111.515 23.963Z" fill="#FF7020"/>
<path d="M127.035 23.963C125.82 23.963 124.728 23.732 123.761 23.2699C122.793 22.8079 122.039 22.1809 121.499 21.3889C120.959 20.5968 120.689 19.7058 120.689 18.7158C120.689 17.5277 121.004 16.5927 121.634 15.9107C122.264 15.2066 123.288 14.7116 124.706 14.4256C126.123 14.1176 128.002 13.9636 130.342 13.9636H132.131V16.5377H130.376C129.229 16.5377 128.295 16.6037 127.575 16.7357C126.877 16.8457 126.371 17.0437 126.056 17.3297C125.763 17.6157 125.617 18.0117 125.617 18.5178C125.617 19.1338 125.831 19.6398 126.258 20.0358C126.708 20.4318 127.35 20.6298 128.182 20.6298C128.835 20.6298 129.409 20.4868 129.904 20.2008C130.421 19.8928 130.826 19.4858 131.119 18.9798C131.411 18.4518 131.557 17.8577 131.557 17.1977V13.4026C131.557 12.4345 131.332 11.7525 130.882 11.3565C130.432 10.9385 129.667 10.7295 128.587 10.7295C127.98 10.7295 127.316 10.8065 126.596 10.9605C125.898 11.0925 125.122 11.3235 124.267 11.6535C123.772 11.8735 123.333 11.9285 122.951 11.8185C122.568 11.6865 122.276 11.4665 122.073 11.1585C121.871 10.8285 121.769 10.4765 121.769 10.1024C121.769 9.70642 121.882 9.33241 122.107 8.9804C122.332 8.60638 122.703 8.33137 123.221 8.15536C124.278 7.73735 125.268 7.45134 126.191 7.29733C127.136 7.14332 128.002 7.06632 128.79 7.06632C130.522 7.06632 131.94 7.31933 133.043 7.82535C134.168 8.30937 135.011 9.0684 135.574 10.1024C136.136 11.1145 136.418 12.4235 136.418 14.0296V21.3559C136.418 22.1699 136.215 22.7969 135.81 23.2369C135.405 23.677 134.82 23.897 134.055 23.897C133.29 23.897 132.694 23.677 132.266 23.2369C131.861 22.7969 131.659 22.1699 131.659 21.3559V20.1348L131.895 20.3328C131.76 21.0809 131.467 21.7299 131.017 22.2799C130.59 22.8079 130.039 23.2259 129.364 23.534C128.689 23.82 127.912 23.963 127.035 23.963Z" fill="#FF7020"/>
<path d="M146.194 23.963C144.191 23.963 142.695 23.424 141.705 22.3459C140.715 21.2459 140.22 19.6178 140.22 17.4617V2.57815C140.22 1.74212 140.433 1.11509 140.861 0.697075C141.311 0.257057 141.952 0.0370483 142.785 0.0370483C143.595 0.0370483 144.214 0.257057 144.641 0.697075C145.091 1.11509 145.316 1.74212 145.316 2.57815V17.2637C145.316 18.1658 145.507 18.8368 145.89 19.2768C146.295 19.6948 146.824 19.9038 147.476 19.9038C147.656 19.9038 147.825 19.8928 147.983 19.8708C148.14 19.8488 148.309 19.8378 148.489 19.8378C148.849 19.7938 149.096 19.9038 149.231 20.1678C149.389 20.4098 149.468 20.9049 149.468 21.6529C149.468 22.3129 149.333 22.8189 149.063 23.1709C148.793 23.501 148.376 23.721 147.814 23.831C147.589 23.853 147.33 23.875 147.037 23.897C146.745 23.941 146.464 23.963 146.194 23.963Z" fill="#FF7020"/>
</g>
</g>
</svg>
